<?xml version="1.0" standalone="no"?>
<!DOCTYPE svg PUBLIC "-//W3C//DTD SVG 20010904//EN"
 "http://www.w3.org/TR/2001/REC-SVG-20010904/DTD/svg10.dtd">
<svg version="1.0" xmlns="http://www.w3.org/2000/svg"
 width="863.000000pt" height="863.000000pt" viewBox="0 0 863.000000 863.000000"
 preserveAspectRatio="xMidYMid meet">

<g transform="translate(0.000000,863.000000) scale(0.100000,-0.100000)"
fill="#000000" stroke="none">
<path d="M4065 8619 c-1360 -77 -2604 -798 -3358 -1945 -605 -920 -832 -2048
-632 -3142 208 -1134 865 -2136 1830 -2791 928 -630 2078 -869 3193 -666 1060
194 2007 782 2664 1652 1102 1458 1154 3486 127 4998 -491 724 -1185 1283
-1984 1598 -442 174 -880 269 -1365 297 -195 11 -270 11 -475 -1z m765 -278
c1186 -161 2210 -799 2868 -1788 345 -518 556 -1085 644 -1733 20 -144 22
-208 22 -505 0 -375 -12 -512 -74 -817 -324 -1582 -1575 -2834 -3155 -3157
-308 -63 -444 -75 -820 -75 -376 0 -512 12 -820 75 -1043 213 -1964 837 -2562
1734 -346 520 -557 1086 -645 1735 -20 144 -22 208 -22 505 0 376 12 512 75
820 346 1692 1750 2991 3464 3205 227 28 228 28 565 25 241 -3 338 -8 460 -24z"/>
<path d="M4036 7963 c-10 -10 -216 -30 -216 -21 0 4 -4 8 -9 8 -9 0 -31 -75
-31 -104 0 -25 17 -18 24 9 9 37 42 65 76 65 17 0 30 -3 30 -7 0 -5 7 -66 15
-138 19 -171 19 -176 -5 -182 -40 -11 -18 -20 38 -15 59 5 108 21 64 22 -14 0
-26 9 -32 23 -11 25 -40 288 -33 300 2 4 20 7 39 7 25 0 42 -8 59 -26 14 -15
25 -32 25 -37 0 -8 3 -8 11 0 7 7 3 24 -12 57 -23 46 -30 52 -43 39z"/>
<path d="M4202 7950 c-57 -35 -65 -101 -17 -139 13 -10 60 -28 104 -41 84 -24
121 -48 121 -79 0 -49 -73 -86 -136 -69 -30 8 -96 69 -106 99 -3 8 -8 11 -12
7 -9 -8 14 -128 24 -128 4 0 10 7 14 15 4 12 11 12 48 -5 51 -23 87 -25 132
-6 66 27 94 95 60 144 -20 28 -52 44 -137 67 -46 12 -74 25 -87 43 -26 32 -25
38 5 67 44 45 135 24 180 -42 28 -43 40 -28 24 29 -15 52 -26 67 -34 46 -6
-14 -10 -14 -33 -2 -39 20 -111 17 -150 -6z"/>
<path d="M4761 7922 c-31 -24 -31 -79 -2 -104 22 -17 22 -18 5 -24 -60 -19
-78 -31 -95 -58 -42 -69 -6 -141 85 -167 30 -8 48 -7 84 4 45 15 45 15 73 -14
32 -35 66 -37 103 -8 21 16 26 29 24 52 -4 36 -31 58 -49 40 -10 -10 -8 -17 6
-33 15 -16 17 -25 8 -38 -15 -25 -43 -21 -67 11 l-20 27 36 68 c27 48 43 67
57 67 40 1 31 13 -15 20 -26 3 -53 9 -60 12 -8 3 -14 1 -14 -5 0 -5 9 -12 20
-15 26 -7 25 -23 -4 -71 l-23 -39 -13 37 c-7 21 -26 53 -42 72 -23 26 -26 34
-14 34 26 0 66 46 66 75 0 14 -11 37 -25 50 -30 30 -92 34 -124 7z m104 -22
c22 -25 13 -64 -20 -86 -23 -15 -27 -15 -50 0 -46 30 -25 106 29 106 13 0 31
-9 41 -20z m-13 -212 c22 -69 22 -70 3 -84 -10 -8 -38 -14 -62 -14 -61 0 -93
32 -93 93 0 47 22 77 70 95 36 14 56 -8 82 -90z"/>
<path d="M3654 7896 c-4 -11 -13 -12 -36 -6 -89 26 -191 -48 -172 -124 10 -41
43 -56 155 -71 77 -10 106 -18 116 -31 37 -50 -16 -114 -94 -114 -49 0 -106
28 -123 61 -11 19 -30 26 -30 10 0 -5 12 -35 27 -67 22 -48 28 -55 31 -36 3
19 8 23 25 18 86 -25 139 -14 187 40 33 39 39 77 14 112 -23 33 -45 41 -145
52 -98 10 -129 25 -129 66 0 33 45 64 92 64 43 0 84 -17 112 -49 31 -35 37
-13 11 40 -27 52 -33 57 -41 35z"/>
<path d="M5283 7796 c-37 -51 -33 -66 9 -31 29 25 61 31 92 19 9 -3 16 -11 16
-16 0 -6 -21 -75 -46 -154 -43 -132 -48 -144 -70 -144 -43 0 -25 -16 36 -33
76 -21 78 -21 52 3 -20 19 -20 22 -7 67 36 119 82 247 91 250 5 2 23 -6 41
-17 23 -13 34 -29 39 -55 10 -53 24 -42 24 20 0 50 -2 55 -22 55 -33 0 -208
60 -208 71 0 19 -16 7 -47 -35z"/>
<path d="M3156 7785 c-55 -20 -87 -45 -113 -91 -40 -69 -22 -175 38 -231 29
-26 90 -53 121 -53 83 0 167 63 187 138 39 144 -100 286 -233 237z m110 -34
c54 -33 94 -140 80 -214 -13 -68 -91 -115 -159 -96 -65 18 -119 103 -120 190
-2 106 111 174 199 120z"/>
<path d="M5640 7713 c0 -4 7 -14 15 -23 14 -15 10 -29 -42 -146 -67 -152 -70
-157 -100 -151 -53 10 -14 -14 118 -73 l142 -62 40 41 c23 22 38 43 35 46 -3
3 -24 -4 -47 -16 -29 -15 -52 -20 -75 -16 -47 8 -136 47 -136 61 0 6 12 39 27
73 29 68 37 71 91 36 19 -12 23 -21 20 -49 -6 -52 9 -41 42 32 33 73 31 98 -4
57 -24 -28 -52 -28 -90 0 -18 13 -18 16 9 75 15 34 29 62 31 62 2 0 29 -11 61
-26 72 -31 101 -58 109 -101 10 -52 25 -39 22 18 l-3 52 -100 44 c-148 66
-165 73 -165 66z"/>
<path d="M2775 7627 c-44 -19 -93 -41 -110 -50 l-30 -16 26 -1 c15 0 31 -6 37
-12 5 -7 35 -71 66 -142 52 -117 55 -130 41 -146 -26 -29 -17 -29 45 -3 61 27
78 45 38 40 -19 -2 -28 8 -50 53 -15 30 -27 58 -27 61 -1 4 24 17 54 29 93 38
126 100 90 169 -13 26 -58 51 -89 51 -6 0 -47 -15 -91 -33z m107 -8 c11 -6 26
-26 34 -45 18 -43 4 -80 -41 -105 -67 -38 -72 -36 -105 33 -17 35 -30 68 -30
74 0 12 84 53 108 54 7 0 22 -5 34 -11z"/>
<path d="M6024 7521 c20 -22 24 -13 -72 -179 -52 -91 -69 -113 -86 -111 -11 0
-25 1 -31 0 -5 -1 41 -30 103 -66 l114 -65 44 36 c24 20 44 40 44 45 0 12 0
12 -45 -11 -22 -11 -48 -20 -59 -20 -26 0 -106 41 -106 54 0 13 140 259 152
267 5 3 21 4 36 2 20 -4 12 4 -31 31 -64 40 -90 46 -63 17z"/>
<path d="M2313 7377 c-62 -40 -113 -75 -113 -78 0 -3 11 -4 24 -2 21 4 33 -10
106 -127 73 -116 82 -135 71 -152 -7 -11 -11 -21 -9 -23 5 -5 107 59 108 68 0
4 -11 5 -24 1 -21 -5 -29 2 -60 50 -20 31 -36 60 -36 65 0 15 48 41 74 41 14
0 31 -9 39 -21 8 -11 17 -16 20 -12 8 12 -73 144 -84 138 -4 -3 -3 -17 3 -30
10 -22 8 -29 -13 -51 -47 -51 -54 -49 -93 15 -20 32 -36 63 -36 67 0 5 25 24
56 43 56 33 74 35 144 16 22 -6 19 -2 -15 29 -22 20 -42 35 -45 35 -3 0 -56
-33 -117 -72z"/>
<path d="M6315 7340 c18 -20 17 -22 -31 -92 -115 -169 -132 -189 -159 -182
-14 3 -25 4 -25 1 0 -5 245 -177 254 -177 12 0 95 64 91 70 -3 4 -24 1 -48 -8
-41 -15 -48 -14 -88 1 -24 10 -61 32 -82 50 l-38 32 42 60 c23 33 43 62 45 64
1 1 19 -10 39 -25 37 -28 40 -40 20 -86 -16 -39 13 -15 53 43 49 71 53 88 14
59 -30 -22 -55 -19 -95 14 -18 14 -17 17 20 70 21 30 42 55 46 56 11 0 108
-73 127 -95 8 -10 15 -35 15 -56 0 -22 3 -39 7 -39 7 0 28 64 28 87 0 6 -52
48 -116 92 -113 79 -155 101 -119 61z"/>
<path d="M4055 7219 c-1143 -99 -2125 -874 -2502 -1974 -412 -1205 29 -2565
1071 -3304 1012 -717 2359 -720 3370 -8 980 691 1437 1912 1151 3076 -138 560
-446 1080 -865 1458 -613 554 -1408 822 -2225 752z m415 -199 c433 -28 828
-144 1185 -349 979 -562 1505 -1649 1340 -2768 -20 -134 -82 -377 -128 -503
-161 -442 -430 -833 -777 -1132 -331 -285 -689 -472 -1105 -578 -679 -174
-1407 -76 -2010 269 -980 562 -1505 1649 -1339 2769 19 133 81 376 127 502
161 442 430 833 777 1132 493 423 1073 645 1745 666 22 1 105 -3 185 -8z"/>
<path d="M3269 6255 c-370 -70 -699 -339 -830 -680 -64 -166 -72 -213 -73
-415 0 -169 2 -193 26 -283 51 -185 143 -350 274 -486 l72 -76 -72 -76 c-130
-135 -223 -301 -274 -486 -24 -90 -26 -114 -26 -283 0 -156 4 -197 21 -260
106 -382 356 -660 708 -786 144 -51 253 -67 420 -61 284 10 522 109 724 303
l76 72 76 -72 c201 -193 440 -293 724 -303 167 -6 276 10 420 61 296 106 547
347 656 631 64 166 72 213 73 415 0 169 -2 193 -26 283 -51 185 -143 350 -274
486 l-72 76 72 76 c193 201 293 440 303 724 6 167 -10 276 -61 420 -126 352
-404 602 -786 708 -63 17 -104 21 -260 21 -169 0 -193 -2 -283 -26 -185 -51
-351 -144 -486 -274 l-76 -72 -76 72 c-137 132 -303 224 -486 273 -123 32
-361 41 -484 18z m2269 -1054 c28 -13 52 -27 52 -31 0 -5 -33 -32 -72 -62
-244 -179 -512 -441 -621 -605 -75 -112 -103 -177 -123 -283 -33 -175 -153
-333 -391 -513 -136 -103 -366 -229 -516 -282 l-79 -28 -95 95 -96 96 39 33
c86 72 253 248 294 309 211 312 79 530 -427 704 -71 24 -205 63 -296 86 -92
24 -167 46 -167 49 0 8 208 185 294 250 137 104 277 158 380 147 135 -15 238
-60 428 -187 169 -115 258 -149 381 -149 108 0 178 30 312 130 163 121 325
215 435 252 77 25 196 20 268 -11z"/>
<path d="M2037 7170 c-81 -25 -143 -115 -135 -199 13 -134 155 -218 267 -159
66 34 103 86 109 152 5 65 -14 111 -68 160 -54 48 -113 64 -173 46z m76 -33
c36 -16 103 -85 117 -123 6 -14 10 -46 10 -71 0 -38 -5 -50 -33 -78 -19 -19
-46 -37 -61 -41 -62 -15 -152 40 -191 117 -36 69 -11 155 55 190 41 23 60 23
103 6z"/>
<path d="M6612 7029 c-45 -13 -108 -80 -121 -126 -15 -53 -13 -82 8 -128 22
-48 54 -79 103 -100 42 -17 118 -20 118 -5 0 6 -12 10 -27 10 -82 0 -155 54
-168 124 -14 70 57 172 135 195 108 32 201 -67 160 -173 -18 -48 9 -37 35 13
28 56 31 76 12 68 -9 -3 -20 9 -31 34 -33 75 -135 115 -224 88z"/>
<path d="M1641 6813 c-33 -40 -42 -64 -16 -43 10 8 19 9 24 4 9 -9 61 -149 61
-164 0 -10 -159 25 -173 39 -7 7 -6 15 3 26 7 9 8 15 2 15 -6 0 -29 -23 -53
-51 l-43 -51 31 6 c20 5 71 -1 135 -15 85 -18 110 -28 146 -57 39 -32 43 -40
38 -66 -5 -30 -4 -30 39 19 25 28 45 54 45 60 0 5 -5 4 -12 -3 -19 -19 -37
-14 -84 25 -40 34 -48 48 -79 144 -19 59 -32 115 -28 127 8 31 -1 27 -36 -15z"/>
<path d="M6915 6741 c-45 -11 -68 -26 -108 -70 -90 -100 -37 -266 97 -300 82
-20 184 27 220 103 20 43 23 124 6 157 -43 82 -134 129 -215 110z m132 -51
c102 -62 82 -190 -42 -261 -58 -34 -107 -37 -151 -10 -32 20 -64 74 -64 110 0
54 56 128 125 164 41 22 94 21 132 -3z"/>
<path d="M1399 6547 c0 -1 -2 -9 -4 -18 -4 -23 -118 -178 -133 -181 -8 -2 0
-20 21 -50 38 -53 53 -54 31 -2 -12 30 -12 39 0 69 8 19 20 35 26 35 12 0 247
-167 256 -181 3 -5 0 -18 -6 -29 -21 -39 8 -20 44 29 39 53 49 86 18 58 -10
-10 -22 -17 -26 -17 -9 0 -244 169 -251 181 -3 4 6 20 19 36 21 24 31 28 70
26 25 -1 46 3 46 8 0 5 -3 9 -7 9 -5 0 -29 7 -55 15 -27 8 -48 13 -49 12z"/>
<path d="M7265 6433 c6 -32 5 -33 -112 -109 -131 -85 -146 -92 -168 -74 -30
25 -26 1 9 -52 35 -52 40 -53 37 -12 -1 11 6 27 16 35 33 29 223 149 223 141
0 -4 -45 -68 -100 -142 -60 -80 -96 -138 -91 -143 6 -6 74 6 171 28 89 20 163
35 166 32 3 -2 -50 -40 -117 -82 -107 -69 -124 -77 -141 -66 -33 20 -31 6 4
-48 36 -56 48 -63 41 -28 -4 21 11 34 121 105 69 45 131 82 139 82 7 0 18 -5
25 -12 24 -24 20 -1 -6 40 -15 23 -33 42 -40 42 -8 0 -72 -13 -144 -30 -71
-16 -136 -30 -144 -30 -9 0 14 39 59 98 40 53 82 111 94 127 l21 30 -35 50
c-33 47 -34 48 -28 18z"/>
<path d="M1181 6208 c-16 -29 -28 -54 -26 -56 2 -2 12 2 23 9 18 11 36 3 151
-66 106 -63 132 -82 130 -99 -3 -42 2 -40 36 18 20 32 33 61 29 65 -4 3 -9 0
-11 -6 -9 -25 -44 -12 -168 63 -113 68 -126 79 -122 100 7 39 -9 28 -42 -28z"/>
<path d="M1102 6043 c2 -11 -8 -28 -26 -43 -87 -74 -69 -210 29 -210 31 0 47
10 115 75 85 81 116 93 144 53 51 -72 -26 -178 -129 -178 -23 0 -35 -4 -33
-12 4 -12 80 -38 113 -38 18 0 18 1 3 16 -15 16 -14 18 15 38 72 47 96 159 47
211 -48 51 -114 35 -178 -42 -52 -62 -97 -89 -126 -75 -32 14 -40 55 -20 97
19 40 63 70 117 79 20 4 37 11 37 15 0 5 -17 12 -37 15 -21 4 -46 10 -56 12
-14 5 -18 1 -15 -13z"/>
<path d="M7545 5970 c8 -24 -13 -38 -171 -111 l-116 -53 -19 25 c-25 32 -24
15 3 -48 21 -49 46 -75 34 -35 -3 9 -2 22 2 29 9 14 262 135 262 125 0 -4 -55
-62 -122 -129 -101 -101 -119 -123 -104 -129 10 -4 78 -2 150 4 72 7 147 12
166 11 37 0 27 -6 -178 -100 l-62 -28 -20 21 c-27 29 -25 12 6 -56 28 -61 40
-70 39 -29 0 24 11 31 138 91 128 60 139 63 156 48 30 -28 32 -18 6 34 -16 32
-32 50 -43 50 -9 -1 -79 -7 -154 -13 -76 -7 -138 -10 -138 -7 0 3 49 54 109
114 l110 109 -25 49 c-25 49 -40 64 -29 28z"/>
<path d="M952 5700 c-12 -11 -28 -33 -36 -48 -28 -55 -86 -206 -80 -211 3 -3
10 2 15 12 15 25 31 22 174 -37 118 -49 131 -56 136 -82 l6 -29 20 45 c11 25
24 56 28 70 l7 25 -21 -22 -21 -23 -53 21 c-28 12 -60 24 -69 26 -21 6 -21 5
-9 36 8 20 26 28 116 53 92 25 109 33 121 56 8 15 14 35 14 45 0 15 -2 14 -15
-4 -10 -14 -45 -31 -99 -47 -46 -15 -88 -26 -93 -26 -5 0 -7 18 -5 40 6 59 -5
88 -38 105 -40 21 -72 19 -98 -5z m78 -40 c39 -21 44 -47 20 -121 -13 -38 -27
-69 -33 -69 -25 0 -127 46 -127 57 0 18 40 106 57 126 18 19 55 22 83 7z"/>
<path d="M7753 5480 c7 -28 -9 -38 -121 -69 -121 -35 -138 -44 -162 -84 -36
-58 -15 -158 41 -198 39 -28 88 -26 197 5 107 31 128 32 141 9 19 -35 20 -6 2
52 -11 33 -20 58 -21 55 -1 -3 -3 -15 -4 -27 -2 -13 -5 -25 -7 -27 -9 -9 -218
-66 -241 -66 -74 0 -126 112 -78 172 23 29 42 38 169 74 l94 26 18 -23 c10
-13 19 -20 19 -16 0 23 -35 137 -43 137 -5 0 -7 -9 -4 -20z"/>
<path d="M795 5308 c-2 -7 -18 -68 -35 -135 -31 -127 -38 -178 -18 -135 6 12
17 22 25 22 20 0 253 -58 281 -70 13 -6 22 -18 22 -32 0 -47 18 2 52 139 l36
143 -50 31 c-57 37 -74 32 -34 -10 34 -35 43 -92 27 -158 -19 -72 -21 -73 -99
-53 l-67 17 3 34 c3 39 36 72 63 64 9 -3 20 -2 23 3 3 5 -30 19 -74 30 -82 20
-99 17 -55 -12 18 -12 25 -25 25 -49 0 -56 -10 -62 -79 -47 -34 7 -64 17 -67
21 -6 11 12 82 33 133 13 28 28 43 58 57 l40 18 -53 0 c-34 1 -54 -3 -57 -11z"/>
<path d="M7870 5065 c-1 -5 -2 -14 -1 -19 4 -23 -32 -36 -166 -62 l-146 -28
-20 25 -20 24 8 -50 c8 -57 24 -95 25 -58 0 12 5 25 10 28 13 8 294 65 298 60
2 -1 -62 -62 -142 -135 -141 -128 -173 -169 -123 -157 12 3 87 18 166 33 l144
28 20 -25 20 -24 -7 55 c-7 56 -26 94 -26 53 0 -12 -5 -25 -12 -29 -17 -10
-239 -52 -236 -45 2 4 56 55 120 114 112 103 117 109 111 140 -9 47 -21 83
-23 72z"/>
<path d="M710 4938 c0 -18 -3 -43 -6 -55 -4 -14 -2 -23 5 -23 6 0 11 7 11 15
0 8 8 15 18 15 28 -1 279 -138 262 -144 -37 -13 -261 -66 -279 -66 -14 0 -21
6 -21 20 0 11 -4 20 -10 20 -5 0 -10 -8 -10 -19 0 -10 -3 -40 -6 -67 l-7 -49
21 21 c15 16 70 34 196 65 228 56 228 56 34 159 -155 82 -188 104 -188 126 0
8 -4 14 -10 14 -5 0 -10 -15 -10 -32z"/>
<path d="M7920 4631 c0 -11 -5 -23 -10 -26 -14 -8 -292 -33 -307 -27 -7 2 -13
13 -13 23 0 10 -5 19 -11 19 -8 0 -10 -15 -5 -46 3 -26 6 -57 6 -70 0 -30 18
-31 22 -2 4 28 32 34 196 44 120 7 123 6 129 -15 10 -37 26 -24 19 17 -3 20
-6 52 -6 70 0 17 -4 32 -10 32 -5 0 -10 -9 -10 -19z"/>
<path d="M661 4483 c0 -65 1 -67 16 -45 14 20 23 22 102 21 47 -1 118 -4 156
-8 63 -5 70 -8 73 -28 2 -13 8 -23 13 -23 5 0 9 32 9 71 0 44 -4 68 -10 64 -5
-3 -10 -13 -10 -21 0 -17 4 -17 -160 -14 -137 2 -170 9 -170 35 0 8 -4 15 -10
15 -6 0 -10 -29 -9 -67z"/>
<path d="M7666 4406 c-21 -13 -49 -41 -62 -62 -43 -70 -26 -183 35 -238 31
-29 37 -11 8 23 -95 114 -28 251 123 251 97 0 163 -56 163 -138 0 -50 -24 -88
-71 -111 -54 -27 -40 -41 26 -24 66 17 72 21 52 33 -12 8 -12 12 0 36 23 42
18 123 -9 167 -52 84 -180 115 -265 63z"/>
<path d="M660 4305 c0 -54 13 -74 23 -36 4 16 18 20 108 26 173 12 173 12 12
-90 -140 -88 -143 -91 -142 -125 0 -39 17 -90 18 -57 1 29 47 38 190 35 133
-3 136 -3 148 -28 12 -23 13 -19 13 38 0 40 -4 61 -10 57 -5 -3 -10 -12 -10
-19 0 -8 -14 -16 -31 -20 -45 -9 -281 -7 -275 2 2 4 77 52 165 107 88 55 160
106 161 113 0 9 -41 12 -171 12 -162 0 -171 1 -176 20 -10 39 -23 19 -23 -35z"/>
<path d="M7577 4066 c-4 -10 -7 -36 -6 -59 0 -38 1 -40 11 -19 14 27 17 27 73
0 41 -20 45 -25 45 -57 0 -20 -3 -52 -6 -72 -6 -35 -9 -37 -58 -47 -55 -11
-66 -9 -66 14 0 8 -4 14 -9 14 -9 0 -25 -110 -16 -118 3 -3 11 2 18 12 9 12
68 31 191 59 247 58 247 58 21 166 -115 55 -176 90 -182 104 -9 19 -10 19 -16
3z m241 -153 c45 -20 80 -38 77 -41 -5 -6 -179 -41 -183 -38 -5 6 11 116 17
116 3 0 43 -16 89 -37z"/>
<path d="M685 3870 c7 -56 25 -94 25 -52 0 28 21 37 129 57 122 22 138 20 177
-19 37 -37 45 -86 22 -129 -19 -37 -38 -45 -162 -68 l-119 -22 -18 24 c-22 28
-22 25 -8 -58 6 -34 15 -61 20 -58 4 3 6 12 3 19 -9 22 17 33 135 54 62 12
124 28 137 37 38 25 57 71 52 127 -6 59 -31 96 -82 122 -36 18 -39 18 -158 -4
l-122 -21 -18 23 c-19 23 -19 23 -13 -32z"/>
<path d="M7798 3655 c-3 -3 7 -19 23 -35 21 -20 29 -38 29 -64 0 -19 -4 -37
-9 -40 -14 -9 -303 60 -311 75 -5 7 -6 18 -3 26 3 7 0 13 -5 13 -12 0 -42
-120 -34 -134 3 -5 9 0 13 12 6 14 17 22 33 22 46 0 287 -62 292 -75 10 -25
-25 -73 -61 -85 -19 -6 -35 -16 -35 -22 0 -6 7 -7 16 -4 9 3 34 6 56 6 30 0
39 4 35 14 -7 18 41 218 54 227 7 4 -8 20 -34 38 -49 33 -51 34 -59 26z"/>
<path d="M1010 3350 c-146 -53 -184 -59 -194 -34 -4 9 -9 14 -12 11 -8 -8 28
-117 37 -111 5 2 6 11 3 18 -3 7 3 19 12 27 18 15 224 89 224 81 0 -5 -73 -97
-163 -204 l-39 -47 17 -50 c17 -52 36 -70 28 -27 -5 27 -17 21 162 82 l130 45
18 -22 c25 -31 30 -19 12 32 -26 74 -28 77 -34 44 -6 -28 -13 -32 -141 -77
-74 -26 -138 -46 -143 -45 -4 1 49 70 117 152 106 129 136 177 107 174 -3 0
-67 -22 -141 -49z"/>
<path d="M7431 3328 c-20 -59 -20 -91 0 -55 13 23 33 22 131 -9 168 -53 188
-63 188 -92 0 -35 14 -18 34 42 21 63 20 73 -2 53 -10 -10 -24 -17 -31 -17
-20 0 -265 82 -279 93 -7 6 -11 19 -9 29 3 10 1 18 -3 18 -4 0 -18 -28 -29
-62z"/>
<path d="M7475 3173 c-52 -9 -66 -15 -96 -40 -17 -15 -40 -45 -50 -68 -56
-122 21 -252 156 -263 69 -6 96 1 136 35 100 85 87 252 -26 311 -34 18 -91 29
-120 25z m69 -59 c60 -21 111 -71 120 -118 9 -49 -22 -119 -63 -140 -80 -42
-210 7 -257 96 -19 36 -18 62 5 107 34 66 104 86 195 55z"/>
<path d="M1257 3074 c4 -11 -34 -55 -136 -153 -112 -107 -141 -140 -135 -154
5 -15 15 -17 58 -13 28 3 113 11 189 17 127 10 140 9 158 -7 23 -21 24 -12 3
43 -18 48 -31 55 -36 21 -3 -20 -10 -23 -59 -26 l-55 -3 -27 62 -27 63 27 29
c43 45 64 53 80 31 22 -30 16 8 -9 61 -20 42 -45 65 -31 29z m-59 -219 c12
-25 22 -49 22 -54 0 -5 -35 -12 -77 -15 -43 -4 -87 -9 -98 -12 -12 -3 8 22 49
61 37 36 71 65 75 65 4 0 17 -20 29 -45z"/>
<path d="M7215 2797 c-31 -54 -33 -78 -5 -52 19 17 23 15 150 -56 71 -41 130
-77 130 -81 0 -4 -89 -9 -197 -10 -164 -3 -198 -5 -198 -17 0 -8 63 -51 140
-96 128 -74 140 -84 138 -108 -3 -40 9 -33 40 23 29 52 29 58 -2 38 -16 -10
-35 -2 -125 48 -58 32 -106 62 -106 66 0 5 73 8 163 8 l162 0 28 50 c28 50 27
62 -3 35 -14 -13 -30 -6 -151 63 -124 72 -134 79 -131 105 4 37 -3 34 -33 -16z"/>
<path d="M1460 2651 c0 -27 -10 -35 -124 -100 -121 -70 -160 -83 -169 -58 -2
6 -8 9 -12 5 -7 -7 55 -118 66 -118 3 0 4 10 2 23 -6 29 -4 30 135 111 113 66
146 77 155 54 2 -7 7 -10 11 -7 7 6 -51 119 -60 119 -2 0 -4 -13 -4 -29z"/>
<path d="M1173 2599 c-39 -15 -53 -26 -53 -40 0 -31 33 -23 81 21 50 44 46 47
-28 19z"/>
<path d="M1535 2530 c4 -11 -8 -66 -26 -126 l-33 -107 -95 7 c-52 4 -101 12
-108 18 -26 22 -23 0 7 -40 17 -23 35 -42 42 -42 9 0 9 3 0 12 -7 7 -12 16
-12 20 0 9 144 11 153 2 6 -6 -30 -112 -44 -128 -5 -5 -15 -4 -24 4 -26 21
-18 -7 15 -55 36 -52 55 -67 45 -36 -8 27 51 211 68 211 66 -2 201 -21 213
-31 27 -22 26 0 -2 38 -42 58 -46 61 -42 33 l3 -25 -84 2 c-46 2 -86 5 -88 7
-3 2 6 37 19 76 21 67 46 100 56 72 2 -7 8 -10 12 -7 5 3 -8 30 -28 60 -38 55
-58 71 -47 35z"/>
<path d="M7019 2461 c9 -16 6 -21 -18 -31 -88 -36 -128 -163 -68 -217 49 -45
85 -39 176 31 31 24 66 49 79 55 53 28 93 -23 68 -84 -20 -46 -69 -75 -128
-75 -76 0 -65 -12 51 -58 9 -3 12 1 9 14 -2 12 7 26 27 39 74 50 98 143 50
190 -39 40 -82 34 -157 -23 -103 -79 -124 -86 -158 -52 -24 24 -25 51 -3 97
20 44 85 76 143 72 60 -5 58 8 -5 36 -69 30 -79 31 -66 6z"/>
<path d="M6114 1846 c-3 -8 2 -38 10 -67 21 -70 22 -69 -22 -69 -35 0 -62 -14
-62 -31 0 -4 20 -32 44 -63 46 -59 73 -112 63 -123 -11 -10 -36 17 -47 53 -10
28 -16 34 -40 34 -16 0 -35 3 -44 6 -29 11 -17 -20 25 -65 44 -47 45 -58 18
-146 -10 -34 -10 -46 2 -69 8 -16 19 -29 24 -29 11 0 81 120 97 168 13 36 38
66 48 60 5 -3 2 -25 -5 -49 -12 -40 -19 -84 -16 -113 2 -28 30 -11 42 25 14
41 48 92 62 92 5 0 7 -14 3 -30 -3 -18 0 -40 7 -51 11 -18 7 -25 -36 -62 -26
-23 -47 -50 -47 -61 0 -30 49 -11 93 37 l39 42 19 -24 c37 -45 24 -87 -55
-168 -26 -28 -35 -43 -25 -43 23 0 104 56 140 97 26 31 30 42 25 72 -3 19 -17
57 -30 83 l-25 48 45 37 c69 58 51 89 -23 38 -46 -31 -64 -20 -61 38 2 25 -2
41 -10 44 -13 5 -62 -41 -98 -92 -32 -44 -38 -26 -15 41 23 64 55 104 83 104
27 0 109 44 137 74 22 23 22 26 7 32 -11 4 -44 -7 -86 -28 -79 -41 -80 -40
-81 50 0 31 -4 65 -8 75 -7 18 -8 18 -21 2 -8 -10 -26 -39 -40 -64 -34 -62
-54 -60 -60 6 -7 68 -60 130 -76 89z m61 -196 c7 -23 -2 -43 -16 -35 -12 8
-12 55 0 55 5 0 12 -9 16 -20z m93 -41 c-2 -6 -8 -10 -13 -10 -5 0 -11 4 -13
10 -2 6 4 11 13 11 9 0 15 -5 13 -11z m-142 -175 c-3 -9 -6 -20 -6 -25 0 -5
-4 -9 -10 -9 -11 0 -14 33 -3 43 12 13 25 7 19 -9z"/>
<path d="M2164 1786 c-3 -9 -4 -23 -1 -31 8 -19 -51 -106 -85 -125 -25 -13
-31 -13 -55 0 -17 10 -29 26 -31 40 -10 95 -38 122 -80 78 -22 -24 -62 -182
-62 -246 0 -37 45 -92 75 -92 26 0 118 -46 140 -70 19 -21 19 -22 1 -36 -18
-13 -18 -14 10 -24 60 -23 83 -23 149 4 45 18 84 26 124 26 57 0 91 15 91 40
0 5 3 16 6 24 4 11 -9 30 -39 59 -43 40 -45 45 -49 106 l-4 63 46 -6 c51 -7
75 7 68 41 -7 38 -185 147 -260 160 -29 4 -39 2 -44 -11z m125 -160 c14 -16 4
-43 -23 -65 -11 -9 -20 -10 -35 -1 -25 13 -27 37 -4 62 19 22 46 23 62 4z
m-291 -78 c19 -19 14 -37 -14 -44 -34 -9 -49 7 -35 35 13 24 31 27 49 9z m166
-53 c-1 -15 -72 -48 -89 -41 -21 8 -8 33 23 45 32 12 67 10 66 -4z m195 -59
l22 -23 -48 -21 c-79 -34 -138 -46 -162 -33 -39 21 -23 40 66 76 75 30 95 30
122 1z"/>
<path d="M3065 1333 c-57 -62 -111 -101 -122 -89 -3 3 2 21 11 41 10 20 16 46
14 58 -6 40 -32 30 -66 -26 -18 -29 -46 -63 -62 -76 -17 -12 -30 -28 -30 -36
0 -20 37 -38 66 -31 18 5 22 3 18 -9 -13 -34 -134 -32 -218 5 -38 16 -50 17
-66 7 -21 -12 -25 -33 -12 -54 4 -6 32 -14 62 -18 120 -13 116 -11 143 -68 18
-35 23 -55 16 -62 -9 -9 -141 -12 -184 -4 -15 3 -21 -2 -23 -18 -3 -18 3 -23
34 -29 36 -7 153 0 205 12 21 5 32 -1 55 -27 64 -72 137 -139 150 -139 35 0 8
48 -67 120 -76 71 -76 85 -3 93 36 4 60 12 68 23 11 14 16 15 36 4 13 -7 31
-21 40 -31 26 -30 56 -33 74 -7 31 44 19 68 -38 75 -33 3 -172 48 -194 61 -16
11 -5 39 21 54 16 8 23 7 31 -4 13 -17 81 -30 113 -22 24 7 48 55 40 79 -4 8
-18 17 -32 21 -32 8 -32 21 -1 36 14 6 27 17 30 24 9 23 -25 106 -43 103 -3
-1 -33 -31 -66 -66z m18 -130 c12 -11 -14 -33 -39 -33 -28 0 -31 15 -6 29 20
12 36 14 45 4z m-170 -152 c17 -6 17 -8 3 -20 -13 -11 -19 -11 -31 -1 -30 25
-13 38 28 21z"/>
<path d="M5455 1351 c-3 -5 6 -43 20 -85 14 -41 25 -84 25 -95 0 -13 -20 -34
-57 -60 -96 -66 -94 -64 -87 -88 9 -33 39 -29 87 12 22 19 47 35 54 35 16 0
18 -78 2 -152 -9 -44 -20 -61 -60 -99 -35 -32 -48 -51 -43 -62 10 -28 48 -19
86 21 49 49 65 92 79 206 7 53 15 96 19 96 4 0 40 -15 81 -34 81 -37 157 -56
224 -56 46 0 59 8 49 34 -7 19 -51 33 -132 40 -59 5 -130 33 -183 70 -19 13
-19 14 9 37 16 13 50 36 76 51 47 28 58 52 34 76 -20 20 -32 14 -103 -43 -37
-31 -69 -54 -72 -52 -2 3 -5 31 -6 63 -2 57 -3 60 -37 76 -40 20 -56 22 -65 9z"/>
<path d="M3710 1190 c-30 -16 -63 -29 -72 -30 -31 0 -30 -20 1 -26 25 -5 29
-9 20 -20 -6 -8 -19 -14 -29 -14 -9 0 -25 -9 -35 -20 -10 -11 -26 -20 -37 -20
-22 0 -23 -27 -3 -54 8 -11 15 -31 15 -44 0 -21 -4 -24 -30 -20 -18 3 -35 -1
-42 -9 -15 -18 -7 -24 33 -25 42 -1 59 -14 59 -43 0 -32 -19 -44 -88 -56 -66
-12 -99 -30 -88 -47 12 -20 38 -14 124 28 90 44 107 48 116 23 12 -29 -69 -94
-147 -117 -26 -8 -11 -26 22 -26 17 0 57 19 102 50 41 27 83 50 94 50 30 0 41
11 59 54 20 49 21 86 1 86 -22 0 -18 16 9 34 29 18 42 54 27 69 -16 16 -14 38
5 59 14 14 14 20 4 33 -10 12 -10 18 -1 29 15 18 2 47 -33 70 -14 9 -27 16
-28 15 -2 0 -28 -14 -58 -29z m64 -81 c-10 -16 -24 -9 -24 12 0 18 2 19 15 9
8 -7 12 -16 9 -21z m-14 -108 c0 -13 -26 -32 -33 -24 -14 13 -6 33 13 33 11 0
20 -4 20 -9z m-90 -16 c0 -8 -7 -15 -15 -15 -8 0 -15 7 -15 15 0 8 7 15 15 15
8 0 15 -7 15 -15z m60 -76 c0 -5 -7 -9 -15 -9 -8 0 -15 7 -15 15 0 9 6 12 15
9 8 -4 15 -10 15 -15z m-70 -18 c0 -19 -26 -48 -36 -39 -7 8 14 58 26 58 5 0
10 -8 10 -19z m113 -38 c14 -13 -36 -53 -65 -53 -42 0 -33 31 12 47 43 14 45
15 53 6z"/>
<path d="M4681 1115 c-41 -24 -79 -46 -85 -48 -7 -3 -6 -10 4 -21 11 -14 24
-17 53 -13 32 4 38 2 35 -11 -2 -9 -19 -24 -38 -33 -19 -9 -44 -26 -54 -38
-22 -25 -42 -27 -50 -6 -7 18 -37 20 -54 3 -18 -18 -16 -137 3 -144 23 -9 43
13 50 57 8 47 50 84 66 58 15 -23 10 -54 -16 -111 -14 -29 -25 -60 -25 -69 0
-27 49 -129 62 -130 7 -1 29 0 50 1 31 1 39 -3 54 -30 19 -31 45 -42 131 -56
46 -7 73 6 73 35 0 13 -9 15 -45 13 -59 -5 -90 3 -115 30 -28 30 -26 35 18 45
33 8 39 14 53 58 9 28 20 74 24 104 l7 54 -44 -7 c-53 -8 -78 0 -78 24 0 12
15 24 45 36 44 16 45 18 43 57 -3 39 -1 41 35 55 47 19 61 7 24 -20 -40 -29
-33 -38 24 -33 72 7 129 40 129 75 0 25 -44 31 -116 16 -41 -9 -68 -10 -79 -3
-12 6 -25 5 -40 -3 -42 -22 -53 -6 -17 26 37 33 40 49 13 64 -35 18 -64 11
-140 -35z m118 -154 c18 -11 5 -31 -20 -31 -21 0 -22 1 -13 24 7 18 13 19 33
7z m-129 -47 c-18 -21 -24 -10 -9 18 8 14 14 18 17 10 2 -7 -2 -19 -8 -28z
m30 -35 c0 -26 -13 -50 -49 -90 l-30 -32 -7 28 c-6 23 -2 32 18 49 14 12 31
31 37 44 15 28 31 29 31 1z m111 -61 c-1 -5 -1 -17 -1 -28 0 -23 -26 -38 -41
-23 -15 15 7 65 27 61 8 -2 15 -6 15 -10z m-97 -42 c-6 -15 -34 -30 -42 -22
-10 11 9 36 27 36 14 0 19 -5 15 -14z m83 -83 c-13 -14 -16 -13 -26 5 -9 17
-7 23 11 37 22 15 23 14 26 -6 2 -12 -3 -28 -11 -36z m-133 6 c31 -25 33 -40
6 -64 -24 -22 -23 -23 -43 38 -18 54 -8 61 37 26z"/>
<path d="M4065 1051 c-16 -4 -45 -16 -64 -25 -33 -17 -34 -17 -62 3 -15 12
-32 21 -37 21 -5 0 -21 -24 -36 -54 -21 -41 -26 -62 -21 -87 6 -30 -18 -334
-32 -417 -4 -25 -2 -32 11 -32 23 0 52 68 66 155 17 104 17 104 51 62 39 -48
72 -49 95 -5 23 44 14 117 -20 168 -29 45 -27 56 19 90 11 8 41 37 67 64 57
62 47 77 -37 57z m-85 -100 c0 -13 -26 -32 -33 -24 -14 13 -6 33 13 33 11 0
20 -4 20 -9z m-24 -129 c32 -21 47 -102 19 -102 -8 0 -15 4 -15 9 0 5 -9 11
-20 14 -20 5 -27 38 -14 71 7 18 13 19 30 8z"/>
</g>
</svg>
